<svg id="blob" width="941" height="779" viewBox="0 0 941 779" fill="none" xmlns="http://www.w3.org/2000/svg">
<path d="M660.51 76.7114C717.764 114.49 770.156 156.585 827.949 210.554C885.202 264.523 948.396 330.904 940.295 392.429C932.733 453.953 853.875 510.62 803.643 577.541C753.412 644.463 731.807 720.558 682.115 755.098C632.964 789.099 555.726 781.003 487.131 766.432C418.535 751.86 358.041 730.812 286.745 709.225C215.448 687.638 132.809 665.51 76.0963 613.161C19.3833 561.351 -11.9439 478.779 4.25977 405.921C20.4635 333.063 84.1981 269.919 137.13 211.094C190.603 152.268 232.732 98.2989 287.825 59.4415C342.918 20.0443 410.433 -4.24166 475.788 0.615523C541.143 5.47271 603.257 38.9333 660.51 76.7114Z" fill="#7FFFD4"/>
</svg>
